<?xml version="1.0" encoding="UTF-8" standalone="no"?><!DOCTYPE svg PUBLIC "-//W3C//DTD SVG 1.1//EN" "http://www.w3.org/Graphics/SVG/1.1/DTD/svg11.dtd"><svg width="100%" height="100%" viewBox="0 0 358 113" version="1.1" xmlns="http://www.w3.org/2000/svg" xmlns:xlink="http://www.w3.org/1999/xlink" xml:space="preserve" xmlns:serif="http://www.serif.com/" style="fill-rule:evenodd;clip-rule:evenodd;stroke-linejoin:round;stroke-miterlimit:2;"><g><path d="M105.291,41.073c6.846,5.543 10.609,3.656 8.949,6.823c-1.955,3.729 -8.186,-0.001 -8.608,0.74c-0.466,0.818 1.911,18.463 2.366,25.285c0.605,9.054 1.073,9.02 1.26,9.11c1.332,0.644 6.827,0.069 2.07,6.152c-1.339,1.712 -1.26,1.748 -1.69,3.17c-0.136,0.451 -5.611,5.352 -9.415,3.901c-5.534,-2.11 -4.476,-3.619 -9.215,-7.203c-4.334,-3.278 -1.872,-5.756 0.871,-4.913c2.667,0.82 4.197,2.694 4.127,-0.127c-0.011,-0.428 -1.515,-26.718 -2.527,-31.257c-0.26,-1.165 -0.079,-1.497 -1.241,-1.665c-1.553,-0.225 -3.549,-1.626 -1.937,-4.207c1.941,-3.108 3.015,-2.483 3.98,-6.001c1.008,-3.675 0.509,-5.723 3.534,-5.964c3.999,-0.318 3.467,1.128 5.01,3.45c0.162,0.244 0.662,0.995 2.466,2.706Zm-5.027,3.501c-0.825,-0.255 -0.816,0.065 -1.236,0.861c0.259,1.556 2.392,-0.488 1.288,-0.845l-0.052,-0.016Zm251.894,-2.476c-1.209,2.004 -0.268,2.244 -0.692,3.254c-0.876,2.087 -1.971,1.349 -2.703,3.513c-0.286,0.846 -6.387,12.379 -8.793,15.45c-0.161,0.206 -0.022,0.255 -1.729,2.772c-1.132,1.669 -0.941,1.81 -2.526,3.099c-1.15,0.935 1.045,2.652 1.238,2.804c1.627,1.274 1.301,3.866 2.113,4.185c4.401,1.731 6.112,1.618 6.659,1.582c3.622,-0.239 3.049,1.697 6.561,2.639c8.051,2.158 1.518,6.762 -1.607,5.231c-2.229,-1.092 -2.904,-0.234 -3.056,-0.042c-0.946,1.2 -3.632,9.04 -7.739,6.685c-2.284,-1.309 -0.193,-4.439 -1.778,-3.929c-1.412,0.455 -1.461,1.088 -3.792,0.096c-1.39,-0.591 -1.752,-5.159 -2.823,-3.671c-1.213,1.684 -0.84,2.119 -2.76,2.86c-3.397,1.313 -3.985,-2.938 -4.562,-2.94c-0.353,-0.002 -2.869,1.526 -5.125,-0.06c-0.581,-0.408 -1.666,-2.562 -0.04,-3.639c4.102,-2.716 3.97,-3.064 5.861,-3.226c1.273,-0.109 0.422,-3.553 0.544,-9.696c0.023,-1.141 -0.465,-1.125 -0.321,-14.265c0.065,-5.974 1.721,-6.656 -1.491,-9.859c-1.833,-1.827 -1.721,-2.355 -3.583,-2.156c-2.672,0.286 -5.87,-6.241 -0.024,-5.901c1.268,0.074 1.397,0.518 3.794,-0.922c2.887,-1.734 7.706,-2.181 8.092,-3.39c1.335,-4.171 4.279,-1.49 6.216,-2.066c2.813,-0.837 2.779,0.218 7.609,1.14c0.323,0.062 5.703,1.828 6.179,2.697c0.413,0.754 -0.693,1.854 -0.179,2.317c0.281,0.253 2.156,1.944 1.037,4.609c-0.181,0.43 -0.215,0.376 -0.576,0.829l-0.003,-0.002l-0.001,0.002Zm-9.423,1.776c-1.526,-1.233 -2.524,-1.906 -3.173,-1.177c-1.045,1.174 -0.202,10.265 -0.117,10.732c0.246,1.356 3.207,-5.31 4.062,-7.033c0.66,-1.331 0.207,-1.397 -0.772,-2.522Zm-295.625,38.198c2.313,-0.382 3.27,-0.795 6.538,-1.283c1.967,-0.293 2.023,0.581 3.116,0.033c5.049,-2.531 5.625,0.713 5.545,1.09c-0.399,1.88 -3.235,3.291 -3.861,3.702c-3.958,2.598 -3.885,4.677 -4.184,5.304c-1.579,3.318 1.031,2.826 2.17,2.905c4.1,0.284 1.342,6.229 -2.43,6.082c-6.393,-0.249 -6.403,-0.618 -6.602,-0.608c-3.863,0.192 -3.856,-0.143 -4.189,-0.106c-3.902,0.434 -4.38,-0.179 -5.196,-0.154c-2.786,0.086 -2.764,0.235 -5.556,0.119c-9.293,-0.386 -9.285,-0.157 -10.087,-0.241c-1.081,-0.114 -4.265,-0.448 -13.562,-0.78c-2.303,-0.082 -2.3,0.22 -4.502,-0.314c-0.371,-0.09 -4.918,-1.192 -1.77,-4.435c1.066,-1.098 -0.704,-0.97 -1.344,-2.444c-1.562,-3.595 6.667,-3.889 6.356,-5.565c-0.618,-3.33 -0.449,-6.407 -1.106,-12.851c-0.8,-7.846 -1.241,-7.778 -1.516,-15.637c-0.186,-5.31 0.474,-5.241 0.696,-7.655c0.179,-1.945 -0.031,-1.99 2.882,-13.545c2.896,-11.49 7.488,-9.837 8.298,-12.18c0.072,-0.209 0.063,-0.385 3.815,-0.748c1.249,-0.121 -0.77,-2.706 1.406,-3.761c3.114,-1.509 4.949,1.27 5.528,0.97c1.016,-0.526 0.759,-0.805 1.645,-1.499c1.705,-1.336 -0.263,-2.938 0.149,-3.99c0.507,-1.292 -0.401,-2.882 1.112,-4.438c2.115,-2.175 20.681,2.594 21.07,1.277c1.226,-4.148 3.759,-0.602 5.148,-1.84c1.097,-0.977 1.136,-0.881 2.547,-1.263c3.775,-1.022 5.514,8.132 7.9,6.462c1.971,-1.379 1.847,-1.663 4.243,-2.083c1.983,-0.347 2.285,-5.146 5.228,-4.663c7.451,1.224 -0.202,5.044 -0.564,13.494c-0.081,1.886 -0.376,2.256 1.316,3.04c1.641,0.76 0.665,3.605 0.657,3.908c-0.107,4.173 -0.166,4.166 -0.171,4.528c-0.016,1.139 -0.193,12.877 -0.327,14.23c-0.705,7.117 0.174,7.224 -0.169,8.374c-0.7,2.345 0.43,22.987 0.005,23.995c-0.763,1.811 2.457,2.213 4.932,3.651c4.643,2.697 8.007,3.082 4.311,7.002c-0.889,0.943 -2.277,-0.007 -2.847,0.68c-0.663,0.801 1.455,2.169 1.532,2.244c0.725,0.704 0.086,2.462 -0.355,3.071c-2.553,3.525 -3.283,-0.071 -9.03,-1.234c-0.944,-0.191 -1.294,-1.465 -1.787,-1.702c-0.44,-0.212 -0.837,-0.402 -5.229,-3.146c-1.088,-0.68 -1.794,0.146 -2.337,0.089c-3.017,-0.316 -2.039,-4.083 -2.005,-4.752c0.063,-1.231 3.533,-2.981 2.835,-7.677c-1.911,-12.849 -1.618,-21.148 -2.086,-22.29c-1.582,-3.857 -4.253,-1.111 -5.93,-3.164c-1.961,-2.4 1.509,-3.815 1.915,-4.457c4.347,-6.868 3.28,-9.348 3.27,-10.052c-0.025,-1.756 1.37,-2.099 1.28,-4.521c-0.132,-3.526 0.017,-3.518 -0.023,-3.821c-0.677,-5.139 -0.414,-5.159 -0.499,-5.6c-0.149,-0.771 -0.867,-0.936 -1.187,-1.366c-4.384,-5.888 -4.387,-5.881 -4.733,-6.417l-0.001,0.003l-0.001,-0.002c-0.646,-1.158 -0.728,-0.858 -0.723,0.162l0.004,0.3l-11.922,7.642c-1.736,-0.933 -4.337,-1.928 -4.881,-2.05c-4.173,-0.937 -4.961,-1.427 -4.733,-0.343c0.359,1.704 0.623,1.599 0.918,2.797c0.437,1.776 0.391,1.75 0.883,3.52c0.045,0.161 0.105,0.505 0.174,0.972l-13.149,8.429c-2.165,-10.463 -3.146,-10.716 -3.944,-10.182c-1.945,1.303 -1.962,1.241 -4.106,2.224c-2.481,1.138 -1.657,2.351 -0.712,4.768c1.085,2.776 1.638,5.372 1.955,7.553c0.389,2.673 0.422,4.721 0.644,5.704c0.347,1.54 -0.083,1.534 0.016,3.094c0.808,12.762 -2.398,31.249 -2.503,31.672c-0.344,1.388 -0.229,1.403 0.286,2.718c0.362,0.924 2.216,0.665 4.233,0.197c1.745,-0.405 3.61,-0.966 4.736,-1.051c8.06,-0.611 7.993,-1.006 8.692,-0.98c3.852,0.142 3.794,-0.294 7.642,-0.621c1.897,-0.161 3.199,-0.325 4.231,-0.495Zm3.969,-64.161c-0.002,-0.092 -0.006,-0.191 -0.015,-0.296c-0.036,-0.446 -0.098,-1.208 -5.399,-1.46c-2.588,-0.123 -0.421,1.17 -0.02,1.218c1.642,0.196 1.582,0.355 3.047,1.076c1.516,0.833 2.412,0.977 2.387,-0.539Zm-33.171,74.492c0.017,0.175 0.09,0.927 2.027,0.852c2.794,-0.109 2.818,0.171 3.518,-0.079c7.678,-2.738 8.285,-1.818 8.369,-2.512c0.185,-1.526 -4.196,-0.404 -4.236,-0.4c-5.256,0.525 -6.821,1.368 -9.678,2.139Zm-4.885,-46.652c0.093,-0.755 0.011,-0.953 -0.028,-1.045c-0.049,-0.117 -0.802,-0.394 -0.618,1.459c-0.147,0.423 -1.042,3.01 -1.04,5.5c0.001,0.918 1.999,1.119 2.246,0.942c0.184,-0.132 0.154,-5.77 -0.616,-6.47c0.023,-0.142 0.041,-0.27 0.056,-0.385Zm32.918,42.618c-3.576,0.639 1.951,1.696 2.572,0.538c0.035,-0.065 0.438,-0.823 -0.103,-0.918c-0.572,-0.101 -2.275,0.331 -2.469,0.38Zm-7.614,-33.571l-0,0.002c-0.867,18.212 -7.354,18.158 -9.366,18.352c-0.004,0 -0.343,0.22 -0.848,0.457l10.214,-18.812Zm20.335,-37.45c0.021,2.224 -0.114,5.689 -2.323,7.424c-1.649,1.296 -2.51,2.019 -3.024,2.423l5.347,-9.847Zm211.092,70.667l-0.001,-0.002c-1.672,-2.146 -1.079,-2.395 -0.57,-5.056c0.313,-1.638 1.31,-6.856 -0.017,-20.848c-0.561,-5.913 -0.81,-30.35 -0.861,-31.656c-0.04,-1.005 -4.362,-8.211 -7.052,-7.528c-0.359,0.091 -0.78,0.198 -1.43,4.408c-1.382,8.961 -1.149,8.971 -1.272,9.748c-0.437,2.761 -0.08,2.779 -0.568,5.531c-0.492,2.769 -0.126,2.773 -0.538,5.59c-0.936,6.398 -1.011,29.247 -0.36,31.978c1.049,4.404 -0.037,4.321 -0.608,5.284c-2.212,3.731 -6.713,5.315 -7.284,6.928c-1.366,3.863 -4.757,-0.018 -5.207,-1.469c-0.265,-0.856 -0.409,-4.072 -0.398,-4.115c0.732,-3.014 -0.264,-3.068 0.148,-10.803c0.302,-5.681 0.157,-5.656 0.063,-8.337c-0.098,-2.804 0.405,-2.766 0.127,-10.435c-0.297,-8.207 0.052,-11.794 0.01,-14.947c-0.118,-8.658 0.137,-8.67 -0.045,-9.4c-0.301,-1.208 0.326,-2.183 0.163,-4.509c-0.228,-3.251 -0.02,-3.225 -0.053,-3.503c-0.026,-0.219 -0.196,-1.665 -0.107,-2.752c0.158,-1.927 -2.67,-0.231 -4.264,0.583c-1.813,0.926 -1.341,1.416 -2.709,2.912c-1.686,1.844 0.091,13.112 -0.167,25.708c-0.129,6.301 0.163,6.268 0.34,12.172c0.333,11.089 0.069,12.502 -0.13,13.569c-0.502,2.687 0.793,2.811 -0.953,11.833c-1.605,8.291 -1.1,9.188 -4.012,9.951c-1.22,0.319 -2.504,5.133 -3.83,6.683c-3.193,3.732 -3.201,8.493 -9.614,4.415c-4.395,-2.795 1.236,-6.201 5.02,-21.795c0.887,-3.655 2.404,-8.571 2.605,-13.528c0.334,-8.243 -0.347,-8.203 -0.533,-12.168c-0.612,-13.043 -0.234,-13.036 0.576,-20.163c0.649,-5.711 -0.981,-7.484 -0.77,-9.742c0.831,-8.886 1.476,-9.378 4.475,-9.841c2.545,-0.393 3.123,-5.391 6.625,-5.304c2.879,0.071 3.733,-1.611 3.698,-1.876c-0.474,-3.627 2.916,-0.79 3.64,-2.431c0.407,-0.923 0.258,-1.207 2.446,-1.955c0.676,-0.231 0.809,-0.277 6.495,-6.122c0.865,-0.889 0.188,-1.915 0.747,-2.387c0.579,-0.489 0.638,-0.368 1.152,-0.942c1.778,-1.986 8.536,0.56 14.473,4.144c5.815,3.511 7.857,6.548 8.439,6.296c0.713,-0.308 -0.613,-1.409 2.111,-3.076c4.854,-2.97 3.139,-5.476 7.56,-6.416c1.676,-0.356 1.697,-1.159 3.468,-1.452c3.63,-0.602 3.505,0.415 4,1.356c0.354,0.673 8.431,4.072 12.063,5.905c5.634,2.843 6.291,1.091 8.583,2.622c2.815,1.881 4.652,2.166 2.421,4.733c-1.91,2.198 -3.022,1.386 -3.78,1.227c-2.044,-0.429 -1.118,1.097 -2.002,16.914c-0.346,6.188 0.066,6.168 0.038,7.998c-0.092,6.088 0.013,6.079 -0.021,6.607c-0.094,1.441 0.492,6.64 0.55,8.686c0.175,6.142 0.547,6.085 0.502,6.614c-0.277,3.275 0.627,6.852 0.479,7.964c-0.193,1.459 0.144,1.529 0.368,4.906c0.129,1.95 1.878,0.821 3.099,2.523c1.523,2.125 -0.754,3.193 -1.614,3.71c-0.441,0.265 -1.027,2.685 -3.119,2.704c-2.164,0.02 -3.189,1.485 -2.126,2.564c3.198,3.247 -1.477,6.844 -6.38,2.197c-1.985,-1.882 -1.713,-2.124 -1.911,-2.254c-3.529,-2.316 -3.271,-2.596 -6.141,-5.662c-1.861,-1.988 -0.65,-2.969 -0.599,-3.713c0.074,-1.074 -0.053,-1.037 -0.028,-2.085c0.043,-1.806 5.045,-2.965 4.683,-4.174c-1.031,-3.447 -0.4,-6.04 -0.568,-10.084c-0.075,-1.814 -1.077,-0.896 -3.661,-1.961c-1.536,-0.633 -4.866,-2.897 -7.918,-4.777c-0.592,-0.365 -1.174,-0.716 -1.73,-1.037c-2.475,-1.431 -4.442,-2.283 -4.562,-1.259c-0.232,1.966 1.121,1.391 1.913,3.2c0.055,0.125 0.182,1.255 0.304,2.881c0.07,0.938 0.139,2.04 0.19,3.209c0.121,2.749 0.148,5.866 -0.116,8.078c-0.497,4.173 0.71,4.599 0.076,9.399c-0.234,1.773 1.766,0.602 1.776,0.599c0.77,-0.239 7.199,0.435 3.673,4.42c-1.888,2.134 -1.036,5.526 -3.981,5.876c-0.22,0.026 -2.073,0.247 -2.769,0.136c-4.04,-0.641 -5.161,-0.169 -7.002,-1.608c-2.412,-1.885 -3.188,0.127 -5.718,-1.589Zm23.679,-48.687c0.202,0.17 3.824,3.038 4.252,2.241c0.331,-0.616 -1.285,-9.312 -1.84,-20.826c-0.013,-0.268 -0.037,-0.768 -1.375,-3.06c-0.246,-0.421 -6.878,-3.599 -7.789,-1.79c-0.318,0.631 -2.79,5.539 -4.804,7.405c-0.962,0.891 0.398,2.065 -0.017,6.142c-0.07,0.687 -0.682,3.665 0.191,3.926c0.985,0.294 4.361,1.304 11.382,5.962Zm-12.892,-24.59c0.153,-2.082 -1.727,-1.076 -1.457,-0.665c0.52,0.791 0.581,0.976 1.457,0.665Zm10.242,35.423c0.359,0.217 0.735,0.447 1.127,0.688c5.893,3.635 5.679,3.95 6.231,4.187c1.082,0.464 0.457,-4.351 0.201,-4.683c-0.328,-0.426 -0.476,-0.236 -5.596,-3.725c-0.26,-0.2 -1.018,-0.783 -2.113,-1.542c-1.601,-1.111 -3.921,-2.601 -6.454,-3.827c-1.293,-0.626 -2.989,-1.969 -2.99,-0.012c-0.001,3.94 -0.043,4.088 0.589,4.469c0.89,0.535 1.315,-0.02 6.972,3.242c0.614,0.354 1.289,0.753 2.033,1.203Zm-155.439,26.235c-0.871,4.032 -2.093,4.847 0.089,6.096c2.503,1.433 2.474,1.444 2.699,1.549c5.961,2.766 10.528,1.808 10.464,4.485c-0.017,0.7 -6.312,5.921 -6.015,8.007c0.754,5.284 -4.163,5.961 -5.745,3.761c-0.922,-1.282 -0.558,-1.683 -2.473,-2.485c-2.375,-0.994 -2.072,-1.582 -4.553,-2.351c-3.013,-0.934 -2.913,-1.178 -3.175,-1.254c-1.771,-0.515 -1.637,-0.742 -3.184,-1.695c-3.383,-2.083 -2.412,-3.263 -5.886,-5.237c-3.668,-2.084 -3.42,-5.023 -0.609,-5.637c0.904,-0.198 0.329,-1.523 0.276,-1.792c-0.442,-2.277 1.925,-2.005 3.253,-6.947c1.439,-5.354 1.57,-6.016 1.797,-11.482c0.134,-3.234 -1.139,-7.853 -1.421,-8.398c-1.964,-3.794 -2.344,-3.769 -2.402,-3.861c-3.242,-5.091 -4.099,-4.31 -4.32,-4.775c-2.063,-4.343 5.951,-4.808 6.282,-4.843c1.923,-0.202 6.498,-5.021 7.497,-7.063c1.599,-3.266 1.949,-3.078 1.998,-3.389c1.047,-6.704 12.864,3.311 15.213,5.874c1.493,1.628 2.251,1.685 3.092,1.934c0.331,0.098 0.674,0.225 1.08,0.489c1.564,1.019 -0.191,5.464 0.363,5.947c0.098,0.085 0.268,0.047 0.541,-0.156c1.015,-0.754 1.005,-0.729 2.244,-1.096c1.108,-0.328 0.825,-1.378 1.101,-1.819c0.637,-1.019 0.442,-3.307 -0.054,-5.778c-0.309,-1.539 -0.735,-3.148 -1.15,-4.567c-0.701,-2.4 -1.37,-4.254 -1.386,-4.292c-1.109,-2.621 -2.443,-8.133 -3.044,-8.43c-2.251,-1.114 -1.79,-3.622 -1.175,-4.22c1.626,-1.579 5.724,0.457 5.97,0.556c2.566,1.037 4.973,4.761 6.179,5.315c0.3,0.138 0.526,0.079 0.662,-0.267c0.415,-1.059 0.727,-1.871 0.999,-2.544c0.882,-2.181 1.342,-2.914 3.493,-5.913l0.001,0.002l0.001,0.003c1.152,-0.554 1.102,-0.615 1.56,-0.646c1.895,-0.127 1.898,-0.225 2.037,-0.138c2.74,1.721 2.158,2.72 2.014,2.968c-0.424,0.728 -0.324,0.874 0.406,1.266c1.861,1.001 0.732,3.091 0.702,3.676c-0.106,2.05 -0.475,5.951 -0.766,8.994c-0.131,1.366 -0.245,2.56 -0.314,3.335c-0.042,0.471 -0.066,0.788 -0.066,0.895c-0.018,6.087 -0.293,7.174 -0.274,7.648c0.084,2.062 1.065,0.462 2.105,-0.152c0.179,-0.106 0.367,-0.227 0.563,-0.362c0.523,-0.361 1.099,-0.818 1.694,-1.326c2.327,-1.983 4.944,-4.728 5.833,-5.454c2.674,-2.18 2.741,-2.076 2.97,-2.267c0.401,-0.335 0.766,-1.807 2.214,-2.031c3.584,-0.554 4.204,2.132 4.294,2.52c0.745,3.228 4.647,5.625 5.723,6.398c2.96,2.126 -0.138,3.368 -1.764,5.366c-2.666,3.275 -3.933,4.221 -4.304,4.686c-1.053,1.321 -0.167,1.485 -0.147,3.045c0.081,6.231 12.611,7.998 10.719,11.073c-1.6,2.6 -3.704,0.904 -4.865,4.531c-0.095,0.297 -0.102,8.624 0.052,9.784c0.46,3.47 0.11,3.464 0.318,6.949c0.058,0.965 0.813,0.926 1.496,1.34c2.222,1.347 2.379,1.934 0.822,6.014c-1.524,3.995 -2.364,3.349 -6.029,5.574c-3.566,2.165 -9.216,-5.274 -10.814,-5.334c-1.427,-0.054 -1.407,0.01 -2.768,-0.356c-1.991,-0.536 -4.275,7.516 -7.298,6.923c-4.563,-0.895 -4.728,0.555 -8.039,-0.536c-3.229,-1.064 -5.209,-3.134 -5.574,-3.515c-3.374,-3.528 -6.245,-5.458 -4.477,-6.97c1.452,-1.241 1.675,-0.571 3.828,-0.589c0.608,-0.005 0.611,-2.344 0.612,-2.554c0.014,-8.53 -0.744,-12.45 -1.512,-19.496c-0.276,-2.531 -0.194,-2.534 -0.22,-2.754c-0.842,-6.953 -1.6,-7.918 -1.597,-8.699c0.007,-1.705 -0.298,-1.672 -1.791,-2.486c-1.404,-0.765 -1.142,-2.259 -1.805,-1.373c-0.74,0.99 2.249,4.022 -3.502,5.529c-0.194,0.051 -0.398,0.1 -0.612,0.147c-1.427,0.314 -3.374,-0.443 -5.235,-1.342c-3.58,-1.729 -6.842,-3.985 -5.469,-0.155c0.897,2.501 0.178,2.754 0.536,4.217c0.339,1.385 0.48,2.402 0.556,3.343c0.084,1.043 0.089,1.993 0.198,3.249c0.499,5.743 0.253,5.725 -0.171,11.491c-0.113,1.54 -0.315,2.801 -0.541,3.846Zm-13.657,5.39c-1.013,1.308 0.973,2.048 1.421,0.459c0.322,-1.141 -0.412,-1.123 -1.421,-0.459Zm42.715,3.029c-0.728,-1.193 -0.236,-1.395 -0.584,-1.802c-1.217,-1.42 -1.186,1.628 -1.47,4.811c-0.3,3.355 1.68,1.641 5.015,2.044c0.981,0.119 2.378,-2.345 2.179,-2.786c-0.686,-1.518 -2.615,1.19 -5.139,-2.266Zm9.251,-41.547c-1.21,1.001 -2.546,2.145 -3.859,2.845c-0.746,0.398 -0.501,5.859 -0.375,9.729c0.089,2.747 -0.569,3.879 -0.526,5.561c0.011,0.418 0.111,4.31 0.215,5.217c1.41,12.338 0.469,13.671 2.14,14.853c4.263,3.017 4.951,4.322 6.365,2.091c1.75,-2.761 2.158,-2.41 4.157,-4.988c1.862,-2.402 -1.08,-4.527 0.287,-6.315c0.301,-0.394 0.812,-0.772 1.63,-1.133c0.831,-0.367 0.069,-2.892 -0.258,-3.511c-0.669,-1.266 -0.324,-1.479 -1.445,-2.414c-1.086,-0.906 -1.939,-1.631 -2.615,-2.215c-2.582,-2.231 -2.562,-2.395 -2.934,-2.679c-1.031,-0.787 -1.14,-2.963 -0.658,-3.72c0.478,-0.751 0.902,-1.189 1.3,-1.508c0.893,-0.716 1.658,-0.838 2.62,-2.576l-0,-0.002c0.166,-0.229 1.67,-2.299 1.283,-3.293c-1.448,-3.726 -1.374,-3.733 -3.127,-7.311c-0.425,-0.869 -1.182,-0.757 -2.14,-0.181c-0.616,0.37 -1.314,0.933 -2.061,1.55Zm-42.801,43.499c-0.031,-0.112 -0.395,-1.419 -1.041,-1.012c-0.618,0.39 0.789,1.689 0.907,1.799c1.583,1.463 0.841,2.127 2.648,3.261c1.354,0.849 1.621,0.082 3.008,0.911c2.039,1.218 2.4,-1.533 1.419,-1.781c-3.58,-0.904 -3.231,-1.786 -6.941,-3.178Zm54.783,-2.162l-0.173,-0.066c-0.052,-0.02 -0.643,-0.249 -0.67,0.174c-0.022,0.344 1.106,1.111 1.219,1.188c0.605,0.548 2.077,2.108 2.559,0.889c0.542,-1.369 -0.348,-1.207 -2.935,-2.185Zm-78.602,-68.583c5.792,6.422 6.398,9.13 3.238,10.829c-3.843,2.068 -2.904,-2.798 -7.827,-6.942c-0.21,-0.177 -2.142,-4.614 -6.926,-0.424c-0.33,0.289 -3.242,5.108 0.805,9.016c1.907,1.842 -3.775,4.95 -6.394,2.213c-0.314,-0.328 -2.262,-6.256 -1.392,-9.611c1.934,-7.458 12.373,-12.072 18.496,-5.081Z" style="fill:#fff500;stroke:#000;stroke-width:2px;"/></g></svg>