<?xml version="1.0" encoding="UTF-8" standalone="no"?><!DOCTYPE svg PUBLIC "-//W3C//DTD SVG 1.1//EN" "http://www.w3.org/Graphics/SVG/1.1/DTD/svg11.dtd"><svg width="100%" height="100%" viewBox="0 0 377 118" version="1.1" xmlns="http://www.w3.org/2000/svg" xmlns:xlink="http://www.w3.org/1999/xlink" xml:space="preserve" xmlns:serif="http://www.serif.com/" style="fill-rule:evenodd;clip-rule:evenodd;stroke-linejoin:round;stroke-miterlimit:2;"><g><path d="M284.565,92.135c-1.77,-2.273 -1.142,-2.536 -0.604,-5.354c0.331,-1.735 1.387,-7.26 -0.018,-22.074c-0.594,-6.261 -0.857,-32.136 -0.912,-33.518c-0.042,-1.065 -4.618,-8.694 -7.467,-7.971c-0.381,0.097 -0.826,0.21 -1.514,4.668c-1.464,9.488 -1.216,9.499 -1.346,10.321c-0.463,2.923 -0.084,2.943 -0.602,5.856c-0.521,2.932 -0.134,2.937 -0.57,5.919c-0.991,6.774 -1.07,30.968 -0.381,33.86c1.111,4.663 -0.04,4.576 -0.644,5.595c-2.342,3.95 -7.108,5.628 -7.712,7.336c-1.446,4.09 -5.037,-0.019 -5.513,-1.555c-0.281,-0.906 -0.433,-4.311 -0.422,-4.358c0.775,-3.191 -0.279,-3.249 0.157,-11.438c0.32,-6.015 0.166,-5.989 0.067,-8.827c-0.104,-2.969 0.429,-2.929 0.134,-11.049c-0.315,-8.689 0.056,-12.487 0.01,-15.827c-0.125,-9.167 0.145,-9.18 -0.047,-9.953c-0.319,-1.28 0.345,-2.311 0.173,-4.774c-0.241,-3.442 -0.021,-3.415 -0.056,-3.71c-0.027,-0.232 -0.208,-1.763 -0.113,-2.914c0.167,-2.041 -2.827,-0.245 -4.514,0.617c-1.919,0.98 -1.42,1.499 -2.868,3.084c-1.785,1.953 0.096,13.883 -0.176,27.22c-0.136,6.672 0.172,6.637 0.36,12.889c0.352,11.741 0.073,13.237 -0.138,14.367c-0.531,2.845 0.84,2.977 -1.009,12.529c-1.699,8.779 -1.165,9.729 -4.249,10.536c-1.291,0.338 -2.651,5.435 -4.055,7.076c-3.38,3.952 -3.39,8.992 -10.179,4.675c-4.654,-2.96 1.309,-6.566 5.315,-23.078c0.939,-3.87 2.545,-9.075 2.758,-14.324c0.354,-8.728 -0.368,-8.685 -0.565,-12.884c-0.648,-13.81 -0.248,-13.803 0.609,-21.349c0.687,-6.047 -1.038,-7.924 -0.815,-10.315c0.88,-9.409 1.563,-9.93 4.738,-10.42c2.695,-0.416 3.307,-5.708 7.015,-5.616c3.048,0.075 3.952,-1.706 3.916,-1.986c-0.502,-3.84 3.088,-0.837 3.854,-2.574c0.431,-0.977 0.273,-1.278 2.59,-2.07c0.715,-0.245 0.856,-0.293 6.877,-6.482c0.916,-0.941 0.199,-2.027 0.791,-2.528c0.613,-0.518 0.675,-0.389 1.22,-0.997c1.882,-2.102 9.038,0.593 15.324,4.388c6.157,3.718 8.319,6.933 8.936,6.666c0.755,-0.326 -0.649,-1.492 2.235,-3.257c5.139,-3.145 3.324,-5.798 8.005,-6.793c1.775,-0.377 1.797,-1.227 3.672,-1.538c3.843,-0.637 3.712,0.44 4.236,1.436c0.375,0.713 8.927,4.311 12.772,6.252c5.965,3.01 6.661,1.155 9.088,2.777c2.98,1.992 4.925,2.293 2.563,5.011c-2.022,2.327 -3.2,1.468 -4.003,1.299c-2.165,-0.454 -1.184,1.161 -2.12,17.909c-0.366,6.552 0.07,6.53 0.041,8.468c-0.097,6.446 0.014,6.437 -0.023,6.995c-0.1,1.525 0.521,7.031 0.582,9.197c0.185,6.504 0.579,6.443 0.532,7.003c-0.294,3.468 0.664,7.255 0.508,8.432c-0.205,1.544 0.153,1.619 0.39,5.194c0.137,2.065 1.989,0.869 3.281,2.672c1.613,2.25 -0.799,3.381 -1.709,3.928c-0.467,0.281 -1.087,2.843 -3.302,2.864c-2.291,0.021 -3.376,1.573 -2.251,2.715c3.386,3.438 -1.564,7.247 -6.756,2.326c-2.102,-1.992 -1.814,-2.249 -2.023,-2.386c-3.737,-2.452 -3.464,-2.749 -6.502,-5.996c-1.97,-2.105 -0.689,-3.144 -0.634,-3.932c0.079,-1.137 -0.056,-1.098 -0.03,-2.207c0.046,-1.913 5.342,-3.139 4.959,-4.419c-1.092,-3.65 -0.424,-6.395 -0.602,-10.677c-0.08,-1.92 -1.141,-0.949 -3.876,-2.076c-3.348,-1.379 -14.741,-10.074 -15.046,-7.49c-0.245,2.082 1.187,1.472 2.025,3.388c0.17,0.388 1.004,9.936 0.401,15.002c-0.527,4.419 0.752,4.87 0.08,9.952c-0.248,1.878 1.87,0.637 1.88,0.634c0.815,-0.253 7.623,0.46 3.889,4.68c-1.999,2.259 -1.097,5.851 -4.215,6.222c-0.233,0.028 -2.195,0.261 -2.932,0.144c-4.278,-0.679 -5.465,-0.179 -7.414,-1.703c-2.554,-1.996 -3.374,0.135 -6.052,-1.683l25.071,-51.551c0.214,0.18 4.049,3.217 4.502,2.373c0.35,-0.652 -1.36,-9.86 -1.948,-22.052c-0.014,-0.284 -0.039,-0.813 -1.456,-3.24c-0.26,-0.445 -7.282,-3.81 -8.247,-1.895c-0.336,0.668 -2.954,5.865 -5.087,7.84c-1.019,0.943 0.421,2.186 -0.018,6.503c-0.074,0.728 -0.722,3.881 0.203,4.157c1.043,0.312 4.618,1.381 12.051,6.313l-25.071,51.551l24.343,-43.822c-0.679,-0.522 -4.557,-3.499 -9.071,-5.685c-1.369,-0.663 -3.165,-2.085 -3.165,-0.013c-0.001,4.171 -0.046,4.329 0.624,4.732c1.094,0.658 1.525,-0.241 10.728,5.435c6.24,3.849 6.013,4.182 6.598,4.433c1.146,0.491 0.484,-4.607 0.213,-4.958c-0.348,-0.451 -0.505,-0.25 -5.927,-3.944l-24.343,43.822l11.422,-77.588c0.162,-2.204 -1.829,-1.139 -1.543,-0.704c0.551,0.837 0.615,1.034 1.543,0.704l-11.422,77.588Z"/><path d="M172.639,9.661c1.22,-0.586 1.167,-0.651 1.652,-0.684c2.006,-0.134 2.01,-0.238 2.157,-0.146c2.901,1.822 2.285,2.88 2.132,3.142c-0.449,0.771 -0.343,0.925 0.43,1.34c1.971,1.059 0.775,3.272 0.743,3.893c-0.194,3.738 -1.211,13.283 -1.213,14.003c-0.019,6.445 -0.31,7.596 -0.29,8.098c0.089,2.184 1.128,0.489 2.229,-0.16c2.68,-1.582 7.294,-6.524 8.566,-7.562c2.831,-2.309 2.902,-2.198 3.145,-2.401c0.424,-0.355 0.811,-1.914 2.344,-2.151c3.795,-0.587 4.451,2.257 4.546,2.668c0.789,3.418 4.921,5.956 6.06,6.774c3.134,2.251 -0.146,3.567 -1.868,5.682c-2.822,3.468 -4.164,4.47 -4.557,4.962c-1.115,1.399 -0.177,1.573 -0.155,3.224c0.085,6.597 13.352,8.469 11.349,11.725c-1.694,2.753 -3.922,0.958 -5.151,4.798c-0.101,0.314 -0.107,9.131 0.055,10.36c0.487,3.675 0.116,3.668 0.337,7.358c0.061,1.022 0.861,0.981 1.584,1.419c2.353,1.426 2.519,2.048 0.871,6.368c-1.614,4.23 -2.503,3.546 -6.384,5.902c-3.776,2.293 -9.758,-5.584 -11.45,-5.648c-1.511,-0.057 -1.49,0.011 -2.931,-0.377c-2.109,-0.567 -4.526,7.958 -7.727,7.33c-4.831,-0.947 -5.007,0.588 -8.512,-0.567c-3.419,-1.127 -5.516,-3.319 -5.901,-3.722c-3.572,-3.735 -6.613,-5.779 -4.74,-7.38c1.537,-1.314 1.774,-0.604 4.053,-0.624c0.643,-0.006 0.647,-2.482 0.648,-2.704c0.015,-9.032 -0.788,-13.183 -1.601,-20.643c-0.292,-2.68 -0.205,-2.683 -0.233,-2.916c-0.891,-7.362 -1.694,-8.384 -1.691,-9.21c0.008,-1.806 -0.316,-1.77 -1.897,-2.632c-1.486,-0.81 -1.209,-2.392 -1.911,-1.454c-0.81,1.083 2.599,4.477 -4.356,6.01c-4.415,0.973 -13.544,-7.749 -11.334,-1.585c0.949,2.648 0.189,2.916 0.568,4.465c0.757,3.092 0.579,4.45 0.799,6.979c0.528,6.081 0.267,6.061 -0.181,12.168c-0.582,7.925 -3.387,8.862 -0.479,10.527c2.65,1.517 2.619,1.529 2.858,1.64c6.311,2.929 11.147,1.914 11.079,4.749c-0.018,0.741 -6.683,6.27 -6.368,8.478c0.798,5.595 -4.408,6.312 -6.083,3.982c-0.976,-1.358 -0.591,-1.782 -2.619,-2.631c-2.515,-1.053 -2.194,-1.675 -4.821,-2.489c-3.191,-0.989 -3.084,-1.247 -3.362,-1.328c-1.875,-0.546 -1.733,-0.786 -3.371,-1.794c-3.582,-2.205 -2.554,-3.455 -6.233,-5.545c-3.884,-2.206 -3.621,-5.318 -0.645,-5.968c0.957,-0.209 0.348,-1.613 0.293,-1.897c-0.468,-2.411 2.038,-2.123 3.444,-7.356c1.523,-5.669 1.662,-6.37 1.903,-12.158c0.142,-3.424 -1.206,-8.315 -1.505,-8.892c-2.08,-4.018 -2.482,-3.991 -2.544,-4.088c-3.432,-5.391 -4.341,-4.563 -4.575,-5.056c-2.184,-4.598 6.301,-5.091 6.652,-5.128c2.036,-0.213 6.88,-5.316 7.938,-7.478c1.693,-3.458 2.064,-3.26 2.115,-3.589c1.108,-7.099 13.62,3.506 16.108,6.22c2.203,2.403 2.896,1.574 4.418,2.565c1.949,1.269 -0.969,7.564 0.957,6.132c1.075,-0.799 1.065,-0.772 2.376,-1.16c1.173,-0.348 0.874,-1.459 1.166,-1.926c1.805,-2.886 -2.699,-15.395 -2.743,-15.498c-1.174,-2.775 -2.587,-8.611 -3.223,-8.926c-2.383,-1.179 -1.896,-3.835 -1.244,-4.468c1.722,-1.672 6.061,0.484 6.321,0.589c3.394,1.371 6.524,7.182 7.243,5.345c1.862,-4.753 1.775,-4.799 4.756,-8.954l16.575,44.879c0.176,-0.242 1.768,-2.434 1.359,-3.487c-1.534,-3.945 -1.455,-3.952 -3.311,-7.742c-1.21,-2.471 -4.956,2.552 -8.533,4.462c-0.79,0.422 -0.531,6.203 -0.398,10.302c0.095,2.909 -0.603,4.108 -0.557,5.888c0.011,0.442 0.118,4.563 0.228,5.523c1.493,13.064 0.497,14.475 2.266,15.727c4.514,3.195 5.243,4.576 6.74,2.214c1.853,-2.924 2.285,-2.552 4.402,-5.282c2.406,-3.104 -2.765,-5.77 2.03,-7.887c0.88,-0.389 0.073,-3.063 -0.273,-3.717c-0.708,-1.34 -0.343,-1.566 -1.53,-2.556c-5.542,-4.625 -5.378,-4.802 -5.876,-5.182c-1.092,-0.833 -1.207,-3.137 -0.697,-3.939c1.642,-2.58 2.678,-1.665 4.151,-4.324l-16.575,-44.879l0.38,79.09c-0.77,-1.263 -0.25,-1.478 -0.619,-1.908c-1.289,-1.504 -1.255,1.724 -1.557,5.094c-0.318,3.552 1.779,1.737 5.31,2.164c1.039,0.126 2.518,-2.483 2.307,-2.95c-0.726,-1.607 -2.769,1.26 -5.442,-2.4l-0.38,-79.09l-35.144,81.157c-0.033,-0.118 -0.418,-1.503 -1.102,-1.071c-0.654,0.413 0.835,1.789 0.961,1.905c1.677,1.549 0.89,2.252 2.804,3.453c1.433,0.899 1.716,0.087 3.185,0.964c2.159,1.29 2.541,-1.623 1.503,-1.886c-3.791,-0.958 -3.421,-1.891 -7.349,-3.365l35.144,-81.157l23.259,80.24c0.641,0.58 2.199,2.232 2.71,0.942c0.587,-1.482 -0.411,-1.27 -3.291,-2.384c-0.055,-0.021 -0.681,-0.264 -0.71,0.185c-0.023,0.364 1.171,1.177 1.291,1.258l-23.259,-80.24l-44.85,75.881c-1.073,1.385 1.031,2.169 1.505,0.486c0.34,-1.208 -0.436,-1.189 -1.505,-0.486l44.85,-75.881Z"/><path d="M61.804,15.93c-1.989,-3.565 1.06,5.889 -3.209,9.243c-3.703,2.909 -3.652,3.091 -4.305,3.111c-3.712,0.109 -3.488,-0.828 -4.21,-2.531c-0.441,-1.041 -5.984,-3.224 -6.829,-3.414c-4.419,-0.993 -5.253,-1.511 -5.011,-0.363c0.38,1.804 0.66,1.693 0.972,2.961c0.462,1.88 0.414,1.853 0.935,3.727c0.289,1.04 1.184,9.271 1.103,10.252c-0.02,0.237 -0.171,2.078 -0.185,2.961c-0.051,3.336 -0.117,3.307 -0.491,6.611c-0.484,4.278 -0.846,4.2 -1.049,8.479c-0.918,19.284 -7.79,19.199 -9.917,19.432c-0.013,0.001 -4.114,2.681 -5.332,-0.35c-1.634,-4.065 1.2,-6.84 2.787,-12.444c1.288,-4.548 0.478,-19.315 -0.296,-23.217c-2.544,-12.819 -3.647,-13.143 -4.534,-12.549c-2.059,1.38 -2.078,1.314 -4.348,2.355c-2.627,1.205 -1.754,2.489 -0.754,5.048c2.557,6.543 2.326,12.146 2.752,14.037c0.368,1.63 -0.088,1.624 0.017,3.276c0.855,13.513 -2.539,33.087 -2.65,33.536c-0.364,1.469 -0.242,1.486 0.303,2.878c0.715,1.826 6.927,-0.709 9.497,-0.904c8.534,-0.647 8.463,-1.065 9.203,-1.038c4.079,0.149 4.018,-0.311 8.091,-0.657c6.513,-0.553 6.399,-1.136 11.403,-1.883c2.083,-0.311 2.142,0.615 3.3,0.035c5.346,-2.68 5.956,0.755 5.872,1.155c-0.422,1.99 -3.425,3.485 -4.088,3.92c-4.192,2.749 -4.114,4.952 -4.43,5.616c-1.67,3.514 1.091,2.992 2.297,3.076c4.341,0.301 1.421,6.596 -2.573,6.44c-6.769,-0.264 -6.779,-0.654 -6.99,-0.644c-4.09,0.2 -4.083,-0.152 -4.436,-0.113c-4.131,0.461 -4.638,-0.19 -5.502,-0.163c-2.95,0.092 -2.927,0.249 -5.883,0.127c-9.84,-0.407 -9.831,-0.166 -10.681,-0.255c-1.144,-0.12 -4.516,-0.474 -14.36,-0.826c-2.439,-0.087 -2.435,0.232 -4.767,-0.333c-0.393,-0.095 -5.208,-1.262 -1.874,-4.696c1.129,-1.162 -0.745,-1.027 -1.423,-2.587c-1.654,-3.807 7.059,-4.118 6.73,-5.892c-0.654,-3.526 -0.476,-6.784 -1.171,-13.608c-0.847,-8.308 -1.314,-8.236 -1.605,-16.557c-0.197,-5.622 0.501,-5.549 0.737,-8.105c0.19,-2.06 -0.032,-2.107 3.051,-14.342c3.066,-12.166 7.926,-10.416 8.787,-12.897c0.077,-0.221 0.067,-0.409 4.039,-0.792c1.322,-0.128 -0.815,-2.866 1.489,-3.982c3.298,-1.598 5.24,1.345 5.854,1.027c1.076,-0.557 0.804,-0.853 1.741,-1.587c1.806,-1.414 -0.278,-3.111 0.158,-4.224c0.537,-1.368 -0.425,-3.052 1.178,-4.699c2.24,-2.303 21.897,2.747 22.31,1.352c1.299,-4.392 3.98,-0.638 5.45,-1.948c1.161,-1.035 1.203,-0.933 2.696,-1.337c3.997,-1.082 5.839,8.61 8.364,6.843c2.087,-1.461 1.956,-1.761 4.492,-2.205c2.099,-0.368 2.42,-5.449 5.535,-4.937c7.89,1.297 -0.214,5.34 -0.598,14.288c-0.086,1.997 -0.399,2.389 1.393,3.219c1.738,0.805 0.704,3.817 0.696,4.138c-0.11,4.418 -0.175,4.411 -0.181,4.795c-0.018,1.206 -0.205,13.635 -0.347,15.067c-0.747,7.535 0.185,7.649 -0.179,8.867c-0.742,2.483 0.455,24.339 0.005,25.407c-0.807,1.918 2.601,2.343 5.223,3.865c4.917,2.856 8.478,3.263 4.564,7.413c-0.942,0.998 -2.411,-0.008 -3.014,0.72c-0.702,0.848 1.541,2.297 1.622,2.376c0.77,0.744 0.091,2.607 -0.376,3.251c-2.704,3.732 -3.476,-0.075 -9.561,-1.307c-0.999,-0.202 -1.37,-1.551 -1.893,-1.803c-0.466,-0.224 -0.886,-0.426 -5.537,-3.332c-1.152,-0.72 -1.9,0.154 -2.474,0.094c-3.195,-0.334 -2.159,-4.324 -2.123,-5.031c0.066,-1.303 3.741,-3.156 3.002,-8.128c-2.024,-13.605 -1.713,-22.392 -2.209,-23.601c-1.676,-4.084 -4.503,-1.176 -6.279,-3.35c-2.076,-2.542 1.598,-4.04 2.028,-4.719c4.605,-7.271 3.473,-9.898 3.462,-10.644c-0.027,-1.86 1.451,-2.222 1.355,-4.787c-0.139,-3.734 0.018,-3.725 -0.024,-4.046c-0.715,-5.441 -0.438,-5.462 -0.529,-5.93c-0.158,-0.816 -0.919,-0.991 -1.257,-1.446c-4.644,-6.233 -4.645,-6.227 -5.012,-6.794l-43.902,80.854c0.018,0.185 0.096,0.982 2.147,0.902c2.958,-0.115 2.984,0.181 3.725,-0.083c8.13,-2.895 8.772,-1.925 8.862,-2.659c0.196,-1.615 -4.443,-0.428 -4.485,-0.424c-5.566,0.556 -7.222,1.448 -10.248,2.264l43.902,-80.854l-49.759,31.897c-0.155,0.448 -1.104,3.187 -1.101,5.823c0.001,0.972 2.116,1.185 2.379,0.998c0.195,-0.139 0.163,-6.109 -0.653,-6.851c-0.208,0.01 -0.417,0.02 -0.625,0.03l49.759,-31.897l-11.307,2.551c1.702,0.936 2.667,1.049 2.511,-0.884c-0.038,-0.472 -0.103,-1.279 -5.716,-1.546c-2.74,-0.13 -0.446,1.239 -0.021,1.29c1.739,0.207 1.675,0.376 3.226,1.14l11.307,-2.551l-14.22,76.585c-3.787,0.676 2.069,1.798 2.723,0.569c0.037,-0.069 0.464,-0.871 -0.109,-0.972c-0.606,-0.107 -2.409,0.351 -2.614,0.403l14.22,-76.585l-49.759,31.897c0.208,-0.01 0.417,-0.02 0.625,-0.03c0.186,-1.14 0.076,-1.402 0.03,-1.514c-0.052,-0.124 -0.849,-0.417 -0.655,1.544l49.759,-31.897Z"/><path d="M371.819,43.515c-1.282,2.124 -0.285,2.379 -0.734,3.448c-0.927,2.21 -2.087,1.428 -2.862,3.72c-0.303,0.895 -6.763,13.108 -9.31,16.359c-0.171,0.218 -0.024,0.27 -1.831,2.935c-1.198,1.767 -0.996,1.917 -2.675,3.282c-1.218,0.99 1.106,2.808 1.311,2.968c1.723,1.348 1.377,4.093 2.238,4.432c4.66,1.833 6.472,1.713 7.05,1.675c3.835,-0.253 3.229,1.797 6.947,2.794c8.524,2.285 1.607,7.159 -1.702,5.538c-2.36,-1.156 -3.075,-0.248 -3.235,-0.045c-1.001,1.271 -3.845,9.572 -8.195,7.079c-2.418,-1.386 -0.205,-4.7 -1.883,-4.16c-1.495,0.481 -1.547,1.152 -4.016,0.102c-1.471,-0.626 -1.855,-5.462 -2.989,-3.887c-1.284,1.784 -0.89,2.243 -2.922,3.029c-3.597,1.39 -4.22,-3.111 -4.83,-3.113c-0.374,-0.002 -3.038,1.616 -5.427,-0.063c-0.615,-0.432 -1.765,-2.713 -0.043,-3.853c4.343,-2.876 4.203,-3.245 6.206,-3.416c1.348,-0.115 0.447,-3.763 0.576,-10.267c0.024,-1.208 -0.492,-1.191 -0.34,-15.104c0.069,-6.326 1.823,-7.047 -1.579,-10.439c-1.941,-1.935 -1.822,-2.494 -3.793,-2.283c-2.829,0.303 -6.215,-6.608 -0.026,-6.248c1.342,0.078 1.479,0.548 4.017,-0.976c3.057,-1.836 8.159,-2.31 8.568,-3.589c1.413,-4.417 4.531,-1.578 6.582,-2.188c2.978,-0.886 2.942,0.231 8.057,1.207c0.342,0.065 6.039,1.936 6.542,2.856c0.437,0.799 -0.733,1.963 -0.19,2.453c0.297,0.268 2.283,2.059 1.098,4.881c-0.191,0.455 -0.227,0.397 -0.61,0.877l-9.981,1.881c-1.616,-1.306 -2.672,-2.017 -3.359,-1.245c-1.107,1.243 -0.214,10.869 -0.124,11.363c0.261,1.436 3.396,-5.622 4.3,-7.447c0.699,-1.409 0.219,-1.479 -0.817,-2.67l9.981,-1.881Z"/><path d="M110.426,42.433c7.249,5.87 11.233,3.87 9.475,7.223c-2.07,3.949 -8.667,-0.001 -9.114,0.784c-0.493,0.866 2.023,19.549 2.506,26.773c0.64,9.587 1.136,9.55 1.334,9.646c1.41,0.682 7.229,0.073 2.191,6.514c-1.417,1.812 -1.334,1.85 -1.79,3.357c-0.145,0.478 -5.941,5.666 -9.969,4.131c-5.86,-2.234 -4.739,-3.831 -9.757,-7.626c-4.589,-3.471 -1.982,-6.095 0.922,-5.202c2.824,0.868 4.444,2.852 4.37,-0.135c-0.011,-0.453 -1.604,-28.29 -2.676,-33.096c-0.275,-1.233 -0.084,-1.585 -1.314,-1.763c-1.645,-0.238 -3.758,-1.721 -2.051,-4.454c2.055,-3.291 3.192,-2.629 4.214,-6.355c1.067,-3.891 0.539,-6.06 3.742,-6.315c4.234,-0.337 3.671,1.194 5.305,3.652c0.172,0.258 0.7,1.054 2.611,2.865l-6.631,4.62c0.274,1.648 2.533,-0.517 1.364,-0.895c-0.928,-0.301 -0.909,0.034 -1.364,0.895l6.631,-4.62Z"/><path d="M112.273,15.908c6.133,6.799 6.774,9.667 3.429,11.467c-4.069,2.189 -3.075,-2.963 -8.288,-7.351c-0.222,-0.187 -2.268,-4.885 -7.333,-0.449c-0.349,0.306 -3.433,5.408 0.852,9.546c2.02,1.951 -3.997,5.241 -6.77,2.343c-0.332,-0.347 -2.395,-6.624 -1.474,-10.177c2.048,-7.897 13.101,-12.781 19.584,-5.38Z"/></g></svg>